<mxfile host="Electron" modified="2024-06-10T09:05:01.671Z" agent="Mozilla/5.0 (Windows NT 10.0; Win64; x64) AppleWebKit/537.36 (KHTML, like Gecko) draw.io/24.4.13 Chrome/124.0.6367.207 Electron/30.0.6 Safari/537.36" etag="HhbAkIU7x2elZUEItJLp" version="24.4.13" type="device" pages="2">
  <diagram id="u0LXqo8JSFVd1nHxrx4u" name="Systemskizze">
    <mxGraphModel dx="3187" dy="2124" grid="1" gridSize="10" guides="1" tooltips="1" connect="1" arrows="1" fold="1" page="1" pageScale="1" pageWidth="1654" pageHeight="1169" math="0" shadow="0">
      <root>
        <mxCell id="0" />
        <mxCell id="1" parent="0" />
        <mxCell id="U-DBBzU1QM40JavWMOPu-1" value="OpenEM" style="swimlane;html=1;childLayout=stackLayout;resizeParent=1;resizeParentMax=0;horizontal=0;startSize=20;horizontalStack=0;fillColor=#f5f5f5;fontColor=#333333;strokeColor=#666666;glass=0;swimlaneLine=1;" parent="1" vertex="1">
          <mxGeometry x="120" y="80" width="1240" height="1420" as="geometry" />
        </mxCell>
        <mxCell id="U-DBBzU1QM40JavWMOPu-26" value="ETHZ" style="swimlane;html=1;startSize=20;horizontal=0;fillColor=#f5f5f5;fontColor=#333333;strokeColor=#666666;" parent="U-DBBzU1QM40JavWMOPu-1" vertex="1">
          <mxGeometry x="20" width="1220" height="400" as="geometry" />
        </mxCell>
        <mxCell id="U-DBBzU1QM40JavWMOPu-27" value="User-Client" style="swimlane;whiteSpace=wrap;html=1;strokeColor=#666666;align=center;verticalAlign=top;fontFamily=Helvetica;fontSize=12;fontColor=#333333;fillColor=#f5f5f5;" parent="U-DBBzU1QM40JavWMOPu-26" vertex="1">
          <mxGeometry x="260" y="20" width="200" height="360" as="geometry" />
        </mxCell>
        <mxCell id="U-DBBzU1QM40JavWMOPu-28" value="Ingestor App" style="swimlane;horizontal=0;whiteSpace=wrap;html=1;strokeColor=#6c8ebf;align=center;verticalAlign=top;fontFamily=Helvetica;fontSize=12;fillColor=#dae8fc;" parent="U-DBBzU1QM40JavWMOPu-27" vertex="1">
          <mxGeometry x="10" y="30" width="180" height="250" as="geometry" />
        </mxCell>
        <mxCell id="3WtVO7gQT3JorMnZep3p-54" value="File Selection" style="html=1;shape=mxgraph.infographic.ribbonSimple;notch1=0;notch2=20;align=center;verticalAlign=middle;fontSize=14;fontStyle=0;fillColor=#fff2cc;whiteSpace=wrap;strokeColor=#d6b656;fontFamily=Helvetica;" parent="U-DBBzU1QM40JavWMOPu-28" vertex="1">
          <mxGeometry x="30" y="10" width="140" height="30" as="geometry" />
        </mxCell>
        <mxCell id="3WtVO7gQT3JorMnZep3p-55" value="Metadata Addition" style="html=1;shape=mxgraph.infographic.ribbonSimple;notch1=0;notch2=20;align=center;verticalAlign=middle;fontSize=14;fontStyle=0;fillColor=#d5e8d4;whiteSpace=wrap;strokeColor=#82b366;fontFamily=Helvetica;" parent="U-DBBzU1QM40JavWMOPu-28" vertex="1">
          <mxGeometry x="30" y="90" width="140" height="30" as="geometry" />
        </mxCell>
        <mxCell id="3WtVO7gQT3JorMnZep3p-74" value="Metadata Extraction" style="html=1;shape=mxgraph.infographic.ribbonSimple;notch1=0;notch2=20;align=center;verticalAlign=middle;fontSize=14;fontStyle=0;fillColor=#d5e8d4;whiteSpace=wrap;strokeColor=#82b366;fontFamily=Helvetica;" parent="U-DBBzU1QM40JavWMOPu-28" vertex="1">
          <mxGeometry x="30" y="130" width="140" height="30" as="geometry" />
        </mxCell>
        <mxCell id="3WtVO7gQT3JorMnZep3p-123" value="Dataset Registration" style="html=1;shape=mxgraph.infographic.ribbonSimple;notch1=0;notch2=20;align=center;verticalAlign=middle;fontSize=14;fontStyle=0;fillColor=#fff2cc;whiteSpace=wrap;strokeColor=#d6b656;fontFamily=Helvetica;" parent="U-DBBzU1QM40JavWMOPu-28" vertex="1">
          <mxGeometry x="30" y="170" width="140" height="30" as="geometry" />
        </mxCell>
        <mxCell id="3WtVO7gQT3JorMnZep3p-39" value="Data Upload" style="html=1;shape=mxgraph.infographic.ribbonSimple;notch1=0;notch2=20;align=center;verticalAlign=middle;fontSize=14;fontStyle=0;fillColor=#fff2cc;whiteSpace=wrap;strokeColor=#d6b656;fontFamily=Helvetica;" parent="U-DBBzU1QM40JavWMOPu-28" vertex="1">
          <mxGeometry x="30" y="50" width="140" height="30" as="geometry" />
        </mxCell>
        <mxCell id="3WtVO7gQT3JorMnZep3p-151" value="Authentication" style="html=1;shape=mxgraph.infographic.ribbonSimple;notch1=0;notch2=20;align=center;verticalAlign=middle;fontSize=14;fontStyle=0;fillColor=#e1d5e7;whiteSpace=wrap;strokeColor=#9673a6;fontFamily=Helvetica;" parent="U-DBBzU1QM40JavWMOPu-28" vertex="1">
          <mxGeometry x="30" y="210" width="140" height="30" as="geometry" />
        </mxCell>
        <mxCell id="3WtVO7gQT3JorMnZep3p-156" value="Browser" style="swimlane;horizontal=0;whiteSpace=wrap;html=1;strokeColor=#6c8ebf;align=center;verticalAlign=top;fontFamily=Helvetica;fontSize=12;fillColor=#dae8fc;startSize=23;" parent="U-DBBzU1QM40JavWMOPu-27" vertex="1">
          <mxGeometry x="10" y="290" width="180" height="60" as="geometry" />
        </mxCell>
        <mxCell id="3WtVO7gQT3JorMnZep3p-157" value="Browse" style="html=1;shape=mxgraph.infographic.ribbonSimple;notch1=0;notch2=20;align=center;verticalAlign=middle;fontSize=14;fontStyle=0;fillColor=#dae8fc;whiteSpace=wrap;strokeColor=#6c8ebf;fontFamily=Helvetica;" parent="3WtVO7gQT3JorMnZep3p-156" vertex="1">
          <mxGeometry x="30" y="10" width="140" height="30" as="geometry" />
        </mxCell>
        <mxCell id="U-DBBzU1QM40JavWMOPu-37" value="ETHZ Archive Server" style="swimlane;whiteSpace=wrap;html=1;strokeColor=#666666;align=center;verticalAlign=top;fontFamily=Helvetica;fontSize=12;fontColor=#333333;fillColor=#f5f5f5;" parent="U-DBBzU1QM40JavWMOPu-26" vertex="1">
          <mxGeometry x="740" y="10" width="200" height="320" as="geometry" />
        </mxCell>
        <mxCell id="3WtVO7gQT3JorMnZep3p-32" value="API" style="swimlane;horizontal=0;whiteSpace=wrap;html=1;strokeColor=#6c8ebf;align=center;verticalAlign=top;fontFamily=Helvetica;fontSize=12;fillColor=#dae8fc;startSize=23;" parent="U-DBBzU1QM40JavWMOPu-37" vertex="1">
          <mxGeometry x="10" y="30" width="180" height="170" as="geometry" />
        </mxCell>
        <mxCell id="3WtVO7gQT3JorMnZep3p-87" value="LTS Interface" style="html=1;shape=mxgraph.infographic.ribbonSimple;notch1=0;notch2=20;align=center;verticalAlign=middle;fontSize=14;fontStyle=0;fillColor=#dae8fc;whiteSpace=wrap;strokeColor=#6c8ebf;fontFamily=Helvetica;" parent="3WtVO7gQT3JorMnZep3p-32" vertex="1">
          <mxGeometry x="30" y="10" width="140" height="30" as="geometry" />
        </mxCell>
        <mxCell id="3WtVO7gQT3JorMnZep3p-88" value="Working Storage Interface" style="html=1;shape=mxgraph.infographic.ribbonSimple;notch1=0;notch2=20;align=center;verticalAlign=middle;fontSize=14;fontStyle=0;fillColor=#dae8fc;whiteSpace=wrap;strokeColor=#6c8ebf;fontFamily=Helvetica;" parent="3WtVO7gQT3JorMnZep3p-32" vertex="1">
          <mxGeometry x="30" y="50" width="140" height="30" as="geometry" />
        </mxCell>
        <mxCell id="3WtVO7gQT3JorMnZep3p-93" value="Dataset Archival Scheduler" style="html=1;shape=mxgraph.infographic.ribbonSimple;notch1=0;notch2=20;align=center;verticalAlign=middle;fontSize=14;fontStyle=0;fillColor=#dae8fc;whiteSpace=wrap;strokeColor=#6c8ebf;fontFamily=Helvetica;" parent="3WtVO7gQT3JorMnZep3p-32" vertex="1">
          <mxGeometry x="30" y="90" width="140" height="30" as="geometry" />
        </mxCell>
        <mxCell id="djVDhRiAAj4sorn4fmPW-7" value="Dataset Retrieval Scheduler" style="html=1;shape=mxgraph.infographic.ribbonSimple;notch1=0;notch2=20;align=center;verticalAlign=middle;fontSize=14;fontStyle=0;fillColor=#dae8fc;whiteSpace=wrap;strokeColor=#6c8ebf;fontFamily=Helvetica;" vertex="1" parent="3WtVO7gQT3JorMnZep3p-32">
          <mxGeometry x="30" y="130" width="140" height="30" as="geometry" />
        </mxCell>
        <mxCell id="3WtVO7gQT3JorMnZep3p-34" value="Queue-Dienst" style="swimlane;horizontal=0;whiteSpace=wrap;html=1;strokeColor=#6c8ebf;align=center;verticalAlign=top;fontFamily=Helvetica;fontSize=12;fillColor=#dae8fc;startSize=23;" parent="U-DBBzU1QM40JavWMOPu-37" vertex="1">
          <mxGeometry x="10" y="220" width="180" height="90" as="geometry" />
        </mxCell>
        <mxCell id="3WtVO7gQT3JorMnZep3p-86" value="Jobs" style="shape=process2;fixedSize=1;size=5;fontStyle=1;html=1;whiteSpace=wrap;strokeColor=#6c8ebf;align=center;verticalAlign=top;fontFamily=Helvetica;fontSize=12;fillColor=#dae8fc;" parent="3WtVO7gQT3JorMnZep3p-34" vertex="1">
          <mxGeometry x="30" y="10" width="140" height="30" as="geometry" />
        </mxCell>
        <mxCell id="djVDhRiAAj4sorn4fmPW-8" value="" style="endArrow=classic;html=1;rounded=0;exitX=1;exitY=0.5;exitDx=0;exitDy=0;exitPerimeter=0;entryX=0.5;entryY=0;entryDx=0;entryDy=0;fillColor=#dae8fc;strokeColor=#6c8ebf;dashed=1;jumpStyle=arc;" edge="1" parent="U-DBBzU1QM40JavWMOPu-37" source="3WtVO7gQT3JorMnZep3p-93" target="3WtVO7gQT3JorMnZep3p-86">
          <mxGeometry width="50" height="50" relative="1" as="geometry">
            <mxPoint x="290" y="250" as="sourcePoint" />
            <mxPoint x="340" y="200" as="targetPoint" />
            <Array as="points">
              <mxPoint x="210" y="135" />
              <mxPoint x="210" y="210" />
              <mxPoint x="160" y="210" />
              <mxPoint x="110" y="210" />
            </Array>
          </mxGeometry>
        </mxCell>
        <mxCell id="djVDhRiAAj4sorn4fmPW-9" value="" style="endArrow=classic;html=1;rounded=0;exitX=1;exitY=0.5;exitDx=0;exitDy=0;exitPerimeter=0;entryX=0.5;entryY=0;entryDx=0;entryDy=0;dashed=1;fillColor=#dae8fc;strokeColor=#6c8ebf;jumpStyle=arc;" edge="1" parent="U-DBBzU1QM40JavWMOPu-37" source="djVDhRiAAj4sorn4fmPW-7" target="3WtVO7gQT3JorMnZep3p-86">
          <mxGeometry width="50" height="50" relative="1" as="geometry">
            <mxPoint x="260" y="250" as="sourcePoint" />
            <mxPoint x="310" y="200" as="targetPoint" />
            <Array as="points">
              <mxPoint x="210" y="175" />
              <mxPoint x="210" y="210" />
              <mxPoint x="110" y="210" />
            </Array>
          </mxGeometry>
        </mxCell>
        <mxCell id="3WtVO7gQT3JorMnZep3p-35" value="ETH LTS" style="swimlane;whiteSpace=wrap;html=1;strokeColor=#666666;align=center;verticalAlign=top;fontFamily=Helvetica;fontSize=12;fontColor=#333333;fillColor=#f5f5f5;" parent="U-DBBzU1QM40JavWMOPu-26" vertex="1">
          <mxGeometry x="960" y="10" width="200" height="70" as="geometry" />
        </mxCell>
        <mxCell id="3WtVO7gQT3JorMnZep3p-95" value="API" style="html=1;shape=mxgraph.infographic.ribbonSimple;notch1=0;notch2=20;align=center;verticalAlign=middle;fontSize=14;fontStyle=0;fillColor=#dae8fc;whiteSpace=wrap;strokeColor=#6c8ebf;fontFamily=Helvetica;" parent="3WtVO7gQT3JorMnZep3p-35" vertex="1">
          <mxGeometry x="10" y="30" width="140" height="30" as="geometry" />
        </mxCell>
        <mxCell id="3WtVO7gQT3JorMnZep3p-38" value="ETH Working Storage" style="swimlane;whiteSpace=wrap;html=1;strokeColor=#666666;align=center;verticalAlign=top;fontFamily=Helvetica;fontSize=12;fontColor=#333333;fillColor=#f5f5f5;" parent="U-DBBzU1QM40JavWMOPu-26" vertex="1">
          <mxGeometry x="960" y="90" width="200" height="70" as="geometry" />
        </mxCell>
        <mxCell id="3WtVO7gQT3JorMnZep3p-65" value="API" style="html=1;shape=mxgraph.infographic.ribbonSimple;notch1=0;notch2=20;align=center;verticalAlign=middle;fontSize=14;fontStyle=0;fillColor=#dae8fc;whiteSpace=wrap;strokeColor=#6c8ebf;fontFamily=Helvetica;" parent="3WtVO7gQT3JorMnZep3p-38" vertex="1">
          <mxGeometry x="10" y="30" width="140" height="30" as="geometry" />
        </mxCell>
        <mxCell id="3WtVO7gQT3JorMnZep3p-97" value="" style="endArrow=classic;html=1;rounded=0;fontFamily=Helvetica;fontSize=12;fontColor=default;exitX=1;exitY=0.5;exitDx=0;exitDy=0;exitPerimeter=0;entryX=0;entryY=0;entryDx=0;entryDy=15;entryPerimeter=0;startArrow=classic;startFill=1;strokeWidth=3;fillColor=#dae8fc;strokeColor=#6c8ebf;jumpStyle=arc;" parent="U-DBBzU1QM40JavWMOPu-26" source="3WtVO7gQT3JorMnZep3p-88" target="3WtVO7gQT3JorMnZep3p-65" edge="1">
          <mxGeometry width="50" height="50" relative="1" as="geometry">
            <mxPoint x="520" y="220" as="sourcePoint" />
            <mxPoint x="570" y="170" as="targetPoint" />
            <Array as="points">
              <mxPoint x="950" y="105" />
              <mxPoint x="950" y="135" />
            </Array>
          </mxGeometry>
        </mxCell>
        <mxCell id="3WtVO7gQT3JorMnZep3p-99" value="" style="endArrow=classic;html=1;rounded=0;fontFamily=Helvetica;fontSize=12;fontColor=default;exitX=1;exitY=0.5;exitDx=0;exitDy=0;exitPerimeter=0;entryX=0;entryY=0;entryDx=0;entryDy=15;entryPerimeter=0;startArrow=classic;startFill=1;strokeWidth=3;fillColor=#dae8fc;strokeColor=#6c8ebf;jumpStyle=arc;" parent="U-DBBzU1QM40JavWMOPu-26" source="3WtVO7gQT3JorMnZep3p-87" target="3WtVO7gQT3JorMnZep3p-95" edge="1">
          <mxGeometry width="50" height="50" relative="1" as="geometry">
            <mxPoint x="930" y="115" as="sourcePoint" />
            <mxPoint x="980" y="145" as="targetPoint" />
            <Array as="points">
              <mxPoint x="950" y="65" />
              <mxPoint x="950" y="55" />
            </Array>
          </mxGeometry>
        </mxCell>
        <mxCell id="djVDhRiAAj4sorn4fmPW-12" value="&lt;font style=&quot;font-size: 8px;&quot;&gt;Archive/Retrieval&lt;/font&gt;" style="edgeLabel;html=1;align=center;verticalAlign=middle;resizable=0;points=[];labelBackgroundColor=none;fontSize=8;" vertex="1" connectable="0" parent="3WtVO7gQT3JorMnZep3p-99">
          <mxGeometry x="-0.1733" y="-1" relative="1" as="geometry">
            <mxPoint x="-15" y="-21" as="offset" />
          </mxGeometry>
        </mxCell>
        <mxCell id="3WtVO7gQT3JorMnZep3p-136" value="Instrument Storage" style="swimlane;whiteSpace=wrap;html=1;strokeColor=#666666;align=center;verticalAlign=top;fontFamily=Helvetica;fontSize=12;fontColor=#333333;fillColor=#f5f5f5;startSize=30;" parent="U-DBBzU1QM40JavWMOPu-26" vertex="1">
          <mxGeometry x="40" y="230" width="200" height="80" as="geometry" />
        </mxCell>
        <mxCell id="3WtVO7gQT3JorMnZep3p-137" value="API" style="html=1;shape=mxgraph.infographic.ribbonSimple;notch1=0;notch2=20;align=center;verticalAlign=middle;fontSize=14;fontStyle=0;fillColor=#dae8fc;whiteSpace=wrap;strokeColor=#6c8ebf;fontFamily=Helvetica;" parent="3WtVO7gQT3JorMnZep3p-136" vertex="1">
          <mxGeometry x="10" y="40" width="140" height="30" as="geometry" />
        </mxCell>
        <mxCell id="3WtVO7gQT3JorMnZep3p-143" value="" style="endArrow=classic;html=1;rounded=0;fontFamily=Helvetica;fontSize=12;fontColor=default;exitX=1;exitY=0.5;exitDx=0;exitDy=0;exitPerimeter=0;entryX=0;entryY=0;entryDx=0;entryDy=15;entryPerimeter=0;strokeWidth=3;fillColor=#dae8fc;strokeColor=#6c8ebf;jumpStyle=arc;" parent="U-DBBzU1QM40JavWMOPu-26" source="3WtVO7gQT3JorMnZep3p-137" target="3WtVO7gQT3JorMnZep3p-39" edge="1">
          <mxGeometry width="50" height="50" relative="1" as="geometry">
            <mxPoint x="190" y="150" as="sourcePoint" />
            <mxPoint x="240" y="100" as="targetPoint" />
            <Array as="points">
              <mxPoint x="250" y="285" />
              <mxPoint x="250" y="115" />
            </Array>
          </mxGeometry>
        </mxCell>
        <mxCell id="3WtVO7gQT3JorMnZep3p-144" value="" style="endArrow=classic;html=1;rounded=0;fontFamily=Helvetica;fontSize=12;fontColor=default;exitX=1;exitY=0.5;exitDx=0;exitDy=0;exitPerimeter=0;entryX=0;entryY=0;entryDx=0;entryDy=15;entryPerimeter=0;strokeWidth=3;fillColor=#dae8fc;strokeColor=#6c8ebf;jumpStyle=arc;" parent="U-DBBzU1QM40JavWMOPu-26" source="3WtVO7gQT3JorMnZep3p-137" target="3WtVO7gQT3JorMnZep3p-74" edge="1">
          <mxGeometry width="50" height="50" relative="1" as="geometry">
            <mxPoint x="200" y="295" as="sourcePoint" />
            <mxPoint x="310" y="125" as="targetPoint" />
            <Array as="points">
              <mxPoint x="250" y="285" />
              <mxPoint x="250" y="195" />
            </Array>
          </mxGeometry>
        </mxCell>
        <mxCell id="3WtVO7gQT3JorMnZep3p-146" value="" style="endArrow=classic;html=1;rounded=0;fontFamily=Helvetica;fontSize=12;fontColor=default;exitX=1;exitY=0.5;exitDx=0;exitDy=0;exitPerimeter=0;entryX=0;entryY=0;entryDx=0;entryDy=15;entryPerimeter=0;dashed=1;fillColor=#fff2cc;strokeColor=#d6b656;jumpStyle=arc;" parent="U-DBBzU1QM40JavWMOPu-26" source="3WtVO7gQT3JorMnZep3p-54" target="3WtVO7gQT3JorMnZep3p-137" edge="1">
          <mxGeometry width="50" height="50" relative="1" as="geometry">
            <mxPoint x="230" y="170" as="sourcePoint" />
            <mxPoint x="280" y="120" as="targetPoint" />
            <Array as="points">
              <mxPoint x="480" y="75" />
              <mxPoint x="480" y="10" />
              <mxPoint x="30" y="10" />
              <mxPoint x="30" y="285" />
            </Array>
          </mxGeometry>
        </mxCell>
        <mxCell id="3WtVO7gQT3JorMnZep3p-148" value="" style="endArrow=classic;html=1;rounded=0;fontFamily=Helvetica;fontSize=12;fontColor=default;exitX=1;exitY=0.5;exitDx=0;exitDy=0;exitPerimeter=0;entryX=0;entryY=0;entryDx=0;entryDy=15;entryPerimeter=0;strokeWidth=3;fillColor=#fff2cc;strokeColor=#d6b656;jumpStyle=arc;" parent="U-DBBzU1QM40JavWMOPu-26" source="3WtVO7gQT3JorMnZep3p-39" target="3WtVO7gQT3JorMnZep3p-88" edge="1">
          <mxGeometry width="50" height="50" relative="1" as="geometry">
            <mxPoint x="600" y="160" as="sourcePoint" />
            <mxPoint x="650" y="110" as="targetPoint" />
            <Array as="points">
              <mxPoint x="480" y="115" />
              <mxPoint x="480" y="105" />
            </Array>
          </mxGeometry>
        </mxCell>
        <mxCell id="djVDhRiAAj4sorn4fmPW-13" value="&lt;font style=&quot;font-size: 8px;&quot;&gt;Archive/Retrieval&lt;/font&gt;" style="edgeLabel;html=1;align=center;verticalAlign=middle;resizable=0;points=[];labelBackgroundColor=none;fontSize=8;" vertex="1" connectable="0" parent="U-DBBzU1QM40JavWMOPu-26">
          <mxGeometry x="940" y="45" as="geometry">
            <mxPoint y="47" as="offset" />
          </mxGeometry>
        </mxCell>
        <mxCell id="U-DBBzU1QM40JavWMOPu-2" value="Facilities" style="swimlane;html=1;startSize=20;horizontal=0;fillColor=#f5f5f5;fontColor=#333333;strokeColor=#666666;" parent="U-DBBzU1QM40JavWMOPu-1" vertex="1">
          <mxGeometry x="20" y="400" width="1220" height="500" as="geometry" />
        </mxCell>
        <mxCell id="U-DBBzU1QM40JavWMOPu-18" value="Web Server" style="swimlane;whiteSpace=wrap;html=1;strokeColor=#666666;align=center;verticalAlign=top;fontFamily=Helvetica;fontSize=12;fontColor=#333333;fillColor=#f5f5f5;" parent="U-DBBzU1QM40JavWMOPu-2" vertex="1">
          <mxGeometry x="260" y="20" width="240" height="390" as="geometry" />
        </mxCell>
        <mxCell id="U-DBBzU1QM40JavWMOPu-24" value="Ingestor Frontend" style="swimlane;horizontal=0;whiteSpace=wrap;html=1;strokeColor=#d6b656;align=center;verticalAlign=top;fontFamily=Helvetica;fontSize=12;fillColor=#fff2cc;" parent="U-DBBzU1QM40JavWMOPu-18" vertex="1">
          <mxGeometry x="10" y="30" width="220" height="130" as="geometry" />
        </mxCell>
        <mxCell id="U-DBBzU1QM40JavWMOPu-40" value="File Selection" style="html=1;shape=mxgraph.infographic.ribbonSimple;notch1=0;notch2=20;align=center;verticalAlign=middle;fontSize=14;fontStyle=0;fillColor=#fff2cc;whiteSpace=wrap;strokeColor=#d6b656;fontFamily=Helvetica;" parent="U-DBBzU1QM40JavWMOPu-24" vertex="1">
          <mxGeometry x="30" y="10" width="140" height="30" as="geometry" />
        </mxCell>
        <mxCell id="3WtVO7gQT3JorMnZep3p-52" value="Metadata Addition" style="html=1;shape=mxgraph.infographic.ribbonSimple;notch1=0;notch2=20;align=center;verticalAlign=middle;fontSize=14;fontStyle=0;fillColor=#d5e8d4;whiteSpace=wrap;strokeColor=#82b366;fontFamily=Helvetica;" parent="U-DBBzU1QM40JavWMOPu-24" vertex="1">
          <mxGeometry x="30" y="50" width="140" height="30" as="geometry" />
        </mxCell>
        <mxCell id="3WtVO7gQT3JorMnZep3p-53" value="Initiate Ingestion" style="html=1;shape=mxgraph.infographic.ribbonSimple;notch1=0;notch2=20;align=center;verticalAlign=middle;fontSize=14;fontStyle=0;fillColor=#fff2cc;whiteSpace=wrap;strokeColor=#d6b656;fontFamily=Helvetica;" parent="U-DBBzU1QM40JavWMOPu-24" vertex="1">
          <mxGeometry x="30" y="90" width="140" height="30" as="geometry" />
        </mxCell>
        <mxCell id="U-DBBzU1QM40JavWMOPu-23" value="Ingestor Backend" style="swimlane;horizontal=0;whiteSpace=wrap;html=1;strokeColor=#d6b656;align=center;verticalAlign=top;fontFamily=Helvetica;fontSize=12;fillColor=#fff2cc;" parent="U-DBBzU1QM40JavWMOPu-18" vertex="1">
          <mxGeometry x="10" y="170" width="220" height="210" as="geometry" />
        </mxCell>
        <mxCell id="U-DBBzU1QM40JavWMOPu-41" value="Data validation" style="html=1;shape=mxgraph.infographic.ribbonSimple;notch1=0;notch2=20;align=center;verticalAlign=middle;fontSize=14;fontStyle=0;fillColor=#fff2cc;whiteSpace=wrap;strokeColor=#d6b656;fontFamily=Helvetica;" parent="U-DBBzU1QM40JavWMOPu-23" vertex="1">
          <mxGeometry x="30" y="10" width="140" height="30" as="geometry" />
        </mxCell>
        <mxCell id="U-DBBzU1QM40JavWMOPu-42" value="Dataset registration" style="html=1;shape=mxgraph.infographic.ribbonSimple;notch1=0;notch2=20;align=center;verticalAlign=middle;fontSize=14;fontStyle=0;fillColor=#fff2cc;whiteSpace=wrap;strokeColor=#d6b656;fontFamily=Helvetica;" parent="U-DBBzU1QM40JavWMOPu-23" vertex="1">
          <mxGeometry x="30" y="50" width="140" height="30" as="geometry" />
        </mxCell>
        <mxCell id="U-DBBzU1QM40JavWMOPu-43" value="Data Transfer Scheduler" style="html=1;shape=mxgraph.infographic.ribbonSimple;notch1=0;notch2=20;align=center;verticalAlign=middle;fontSize=14;fontStyle=0;fillColor=#fff2cc;whiteSpace=wrap;strokeColor=#d6b656;fontFamily=Helvetica;" parent="U-DBBzU1QM40JavWMOPu-23" vertex="1">
          <mxGeometry x="30" y="90" width="140" height="30" as="geometry" />
        </mxCell>
        <mxCell id="3WtVO7gQT3JorMnZep3p-3" value="Metadata Extraction" style="html=1;shape=mxgraph.infographic.ribbonSimple;notch1=0;notch2=20;align=center;verticalAlign=middle;fontSize=14;fontStyle=0;fillColor=#d5e8d4;whiteSpace=wrap;strokeColor=#82b366;fontFamily=Helvetica;" parent="U-DBBzU1QM40JavWMOPu-23" vertex="1">
          <mxGeometry x="30" y="130" width="140" height="30" as="geometry" />
        </mxCell>
        <mxCell id="3WtVO7gQT3JorMnZep3p-152" value="Authentication" style="html=1;shape=mxgraph.infographic.ribbonSimple;notch1=0;notch2=20;align=center;verticalAlign=middle;fontSize=14;fontStyle=0;fillColor=#e1d5e7;whiteSpace=wrap;strokeColor=#9673a6;fontFamily=Helvetica;" parent="U-DBBzU1QM40JavWMOPu-23" vertex="1">
          <mxGeometry x="30" y="170" width="140" height="30" as="geometry" />
        </mxCell>
        <mxCell id="U-DBBzU1QM40JavWMOPu-19" value="User-Client" style="swimlane;whiteSpace=wrap;html=1;strokeColor=#666666;align=center;verticalAlign=top;fontFamily=Helvetica;fontSize=12;fontColor=#333333;fillColor=#f5f5f5;startSize=20;" parent="U-DBBzU1QM40JavWMOPu-2" vertex="1">
          <mxGeometry x="40" y="20" width="200" height="260" as="geometry" />
        </mxCell>
        <mxCell id="3WtVO7gQT3JorMnZep3p-57" value="Browser" style="swimlane;horizontal=0;whiteSpace=wrap;html=1;strokeColor=#b85450;align=center;verticalAlign=top;fontFamily=Helvetica;fontSize=12;fillColor=#f8cecc;startSize=23;" parent="U-DBBzU1QM40JavWMOPu-19" vertex="1">
          <mxGeometry x="10" y="30" width="180" height="90" as="geometry" />
        </mxCell>
        <mxCell id="3WtVO7gQT3JorMnZep3p-58" value="Browse" style="html=1;shape=mxgraph.infographic.ribbonSimple;notch1=0;notch2=20;align=center;verticalAlign=middle;fontSize=14;fontStyle=0;fillColor=#f8cecc;whiteSpace=wrap;strokeColor=#b85450;fontFamily=Helvetica;" parent="3WtVO7gQT3JorMnZep3p-57" vertex="1">
          <mxGeometry x="30" y="10" width="140" height="30" as="geometry" />
        </mxCell>
        <mxCell id="3WtVO7gQT3JorMnZep3p-31" value="Cache Storage" style="swimlane;whiteSpace=wrap;html=1;strokeColor=#666666;align=center;verticalAlign=top;fontFamily=Helvetica;fontSize=12;fontColor=#333333;fillColor=#f5f5f5;startSize=30;" parent="U-DBBzU1QM40JavWMOPu-2" vertex="1">
          <mxGeometry x="40" y="300" width="200" height="80" as="geometry" />
        </mxCell>
        <mxCell id="3WtVO7gQT3JorMnZep3p-71" value="API" style="html=1;shape=mxgraph.infographic.ribbonSimple;notch1=0;notch2=20;align=center;verticalAlign=middle;fontSize=14;fontStyle=0;fillColor=#f8cecc;whiteSpace=wrap;strokeColor=#b85450;fontFamily=Helvetica;" parent="3WtVO7gQT3JorMnZep3p-31" vertex="1">
          <mxGeometry x="10" y="40" width="140" height="30" as="geometry" />
        </mxCell>
        <mxCell id="3WtVO7gQT3JorMnZep3p-66" value="" style="endArrow=classic;html=1;rounded=0;fontFamily=Helvetica;fontSize=12;fontColor=default;exitX=1;exitY=0.5;exitDx=0;exitDy=0;exitPerimeter=0;entryX=0;entryY=0.5;entryDx=0;entryDy=0;fillColor=#f8cecc;strokeColor=#b85450;dashed=1;jumpStyle=arc;" parent="U-DBBzU1QM40JavWMOPu-2" source="3WtVO7gQT3JorMnZep3p-58" target="U-DBBzU1QM40JavWMOPu-24" edge="1">
          <mxGeometry width="50" height="50" relative="1" as="geometry">
            <mxPoint x="320" y="-50" as="sourcePoint" />
            <mxPoint x="370" y="-100" as="targetPoint" />
            <Array as="points">
              <mxPoint x="250" y="75" />
              <mxPoint x="250" y="115" />
            </Array>
          </mxGeometry>
        </mxCell>
        <mxCell id="3WtVO7gQT3JorMnZep3p-68" value="Instrument Storage" style="swimlane;whiteSpace=wrap;html=1;strokeColor=#666666;align=center;verticalAlign=top;fontFamily=Helvetica;fontSize=12;fontColor=#333333;fillColor=#f5f5f5;startSize=30;" parent="U-DBBzU1QM40JavWMOPu-2" vertex="1">
          <mxGeometry x="40" y="400" width="200" height="80" as="geometry" />
        </mxCell>
        <mxCell id="3WtVO7gQT3JorMnZep3p-70" value="API" style="html=1;shape=mxgraph.infographic.ribbonSimple;notch1=0;notch2=20;align=center;verticalAlign=middle;fontSize=14;fontStyle=0;fillColor=#f8cecc;whiteSpace=wrap;strokeColor=#b85450;fontFamily=Helvetica;" parent="3WtVO7gQT3JorMnZep3p-68" vertex="1">
          <mxGeometry x="10" y="40" width="140" height="30" as="geometry" />
        </mxCell>
        <mxCell id="3WtVO7gQT3JorMnZep3p-111" value="" style="endArrow=classic;html=1;rounded=0;fontFamily=Helvetica;fontSize=12;fontColor=default;exitX=1;exitY=0.5;exitDx=0;exitDy=0;exitPerimeter=0;entryX=0;entryY=0;entryDx=0;entryDy=15.000000000000002;entryPerimeter=0;fillColor=#f8cecc;strokeColor=#b85450;flowAnimation=0;strokeWidth=3;jumpStyle=arc;" parent="U-DBBzU1QM40JavWMOPu-2" source="3WtVO7gQT3JorMnZep3p-70" target="3WtVO7gQT3JorMnZep3p-71" edge="1">
          <mxGeometry width="50" height="50" relative="1" as="geometry">
            <mxPoint x="410" y="480" as="sourcePoint" />
            <mxPoint x="460" y="430" as="targetPoint" />
            <Array as="points">
              <mxPoint x="200" y="455" />
              <mxPoint x="200" y="390" />
              <mxPoint x="30" y="390" />
              <mxPoint x="30" y="355" />
            </Array>
          </mxGeometry>
        </mxCell>
        <mxCell id="3WtVO7gQT3JorMnZep3p-112" value="" style="endArrow=classic;html=1;rounded=0;fontFamily=Helvetica;fontSize=12;fontColor=default;exitX=1;exitY=0.5;exitDx=0;exitDy=0;exitPerimeter=0;entryX=0;entryY=0;entryDx=0;entryDy=15;entryPerimeter=0;fillColor=#f8cecc;strokeColor=#b85450;strokeWidth=3;jumpStyle=arc;" parent="U-DBBzU1QM40JavWMOPu-2" source="3WtVO7gQT3JorMnZep3p-71" target="3WtVO7gQT3JorMnZep3p-3" edge="1">
          <mxGeometry width="50" height="50" relative="1" as="geometry">
            <mxPoint x="290" y="490" as="sourcePoint" />
            <mxPoint x="340" y="440" as="targetPoint" />
            <Array as="points">
              <mxPoint x="250" y="355" />
              <mxPoint x="250" y="335" />
            </Array>
          </mxGeometry>
        </mxCell>
        <mxCell id="3WtVO7gQT3JorMnZep3p-113" value="" style="endArrow=classic;html=1;rounded=0;fontFamily=Helvetica;fontSize=12;fontColor=default;exitX=1;exitY=0.5;exitDx=0;exitDy=0;exitPerimeter=0;entryX=0;entryY=0;entryDx=0;entryDy=15;entryPerimeter=0;fillColor=#f8cecc;strokeColor=#b85450;strokeWidth=3;jumpStyle=arc;" parent="U-DBBzU1QM40JavWMOPu-2" source="3WtVO7gQT3JorMnZep3p-71" target="U-DBBzU1QM40JavWMOPu-43" edge="1">
          <mxGeometry width="50" height="50" relative="1" as="geometry">
            <mxPoint x="360" y="490" as="sourcePoint" />
            <mxPoint x="410" y="440" as="targetPoint" />
            <Array as="points">
              <mxPoint x="250" y="355" />
              <mxPoint x="250" y="295" />
            </Array>
          </mxGeometry>
        </mxCell>
        <mxCell id="3WtVO7gQT3JorMnZep3p-126" value="Web Server" style="swimlane;whiteSpace=wrap;html=1;strokeColor=#666666;align=center;verticalAlign=top;fontFamily=Helvetica;fontSize=12;fontColor=#333333;fillColor=#f5f5f5;" parent="U-DBBzU1QM40JavWMOPu-2" vertex="1">
          <mxGeometry x="960" y="20" width="240" height="110" as="geometry" />
        </mxCell>
        <mxCell id="3WtVO7gQT3JorMnZep3p-127" value="Frontend" style="swimlane;horizontal=0;whiteSpace=wrap;html=1;strokeColor=#d79b00;align=center;verticalAlign=top;fontFamily=Helvetica;fontSize=12;fillColor=#ffe6cc;" parent="3WtVO7gQT3JorMnZep3p-126" vertex="1">
          <mxGeometry x="10" y="30" width="220" height="70" as="geometry" />
        </mxCell>
        <mxCell id="3WtVO7gQT3JorMnZep3p-128" value="Documentation" style="html=1;shape=mxgraph.infographic.ribbonSimple;notch1=0;notch2=20;align=center;verticalAlign=middle;fontSize=14;fontStyle=0;fillColor=#ffe6cc;whiteSpace=wrap;strokeColor=#d79b00;fontFamily=Helvetica;" parent="3WtVO7gQT3JorMnZep3p-127" vertex="1">
          <mxGeometry x="30" y="10" width="140" height="30" as="geometry" />
        </mxCell>
        <mxCell id="djVDhRiAAj4sorn4fmPW-23" value="" style="shape=umlActor;verticalLabelPosition=bottom;verticalAlign=top;html=1;outlineConnect=0;" vertex="1" parent="3WtVO7gQT3JorMnZep3p-127">
          <mxGeometry x="40" y="15" width="10" height="20" as="geometry" />
        </mxCell>
        <mxCell id="3WtVO7gQT3JorMnZep3p-138" value="" style="endArrow=classic;html=1;rounded=0;fontFamily=Helvetica;fontSize=12;fontColor=default;exitX=1.018;exitY=0.494;exitDx=0;exitDy=0;exitPerimeter=0;entryX=0;entryY=0;entryDx=0;entryDy=0;entryPerimeter=0;fillColor=#fff2cc;strokeColor=#d6b656;dashed=1;jumpStyle=arc;" parent="U-DBBzU1QM40JavWMOPu-2" source="U-DBBzU1QM40JavWMOPu-40" target="3WtVO7gQT3JorMnZep3p-71" edge="1">
          <mxGeometry width="50" height="50" relative="1" as="geometry">
            <mxPoint x="460" y="100" as="sourcePoint" />
            <mxPoint x="130" y="210" as="targetPoint" />
            <Array as="points">
              <mxPoint x="460" y="75" />
              <mxPoint x="460" y="10" />
              <mxPoint x="30" y="10" />
              <mxPoint x="30" y="340" />
            </Array>
          </mxGeometry>
        </mxCell>
        <mxCell id="U-DBBzU1QM40JavWMOPu-16" value="PSI" style="swimlane;html=1;startSize=20;horizontal=0;fillColor=#f5f5f5;fontColor=#333333;strokeColor=#666666;" parent="U-DBBzU1QM40JavWMOPu-1" vertex="1">
          <mxGeometry x="20" y="900" width="1220" height="410" as="geometry" />
        </mxCell>
        <mxCell id="U-DBBzU1QM40JavWMOPu-34" value="PSI Cloud" style="swimlane;whiteSpace=wrap;html=1;strokeColor=#666666;align=center;verticalAlign=top;fontFamily=Helvetica;fontSize=12;fontColor=#333333;fillColor=#f5f5f5;" parent="U-DBBzU1QM40JavWMOPu-16" vertex="1">
          <mxGeometry x="687" y="19" width="230" height="290" as="geometry" />
        </mxCell>
        <mxCell id="3WtVO7gQT3JorMnZep3p-14" value="Ingestor Frontned" style="swimlane;horizontal=0;whiteSpace=wrap;html=1;strokeColor=#d6b656;align=center;verticalAlign=top;fontFamily=Helvetica;fontSize=12;fillColor=#fff2cc;startSize=23;" parent="U-DBBzU1QM40JavWMOPu-34" vertex="1">
          <mxGeometry x="10" y="30" width="210" height="110" as="geometry" />
        </mxCell>
        <mxCell id="3WtVO7gQT3JorMnZep3p-117" value="Frontend" style="html=1;shape=mxgraph.infographic.ribbonSimple;notch1=0;notch2=20;align=center;verticalAlign=middle;fontSize=14;fontStyle=0;fillColor=#fff2cc;whiteSpace=wrap;strokeColor=#d6b656;fontFamily=Helvetica;" parent="3WtVO7gQT3JorMnZep3p-14" vertex="1">
          <mxGeometry x="30" y="10" width="140" height="30" as="geometry" />
        </mxCell>
        <mxCell id="3WtVO7gQT3JorMnZep3p-16" value="Scicat" style="swimlane;horizontal=0;whiteSpace=wrap;html=1;strokeColor=#BD7000;align=center;verticalAlign=top;fontFamily=Helvetica;fontSize=12;fillColor=#f0a30a;startSize=23;fontColor=#000000;" parent="U-DBBzU1QM40JavWMOPu-34" vertex="1">
          <mxGeometry x="10" y="150" width="210" height="130" as="geometry" />
        </mxCell>
        <mxCell id="3WtVO7gQT3JorMnZep3p-17" value="&lt;i&gt;Globus Server?&lt;/i&gt;" style="html=1;shape=mxgraph.infographic.ribbonSimple;notch1=0;notch2=20;align=center;verticalAlign=middle;fontSize=14;fontStyle=0;fillColor=#fff2cc;whiteSpace=wrap;strokeColor=#d6b656;fontFamily=Helvetica;" parent="3WtVO7gQT3JorMnZep3p-16" vertex="1">
          <mxGeometry x="30" y="90" width="140" height="30" as="geometry" />
        </mxCell>
        <mxCell id="3WtVO7gQT3JorMnZep3p-22" value="Frontend" style="html=1;shape=mxgraph.infographic.ribbonSimple;notch1=0;notch2=20;align=center;verticalAlign=middle;fontSize=14;fontStyle=0;fillColor=#f0a30a;whiteSpace=wrap;strokeColor=#BD7000;fontFamily=Helvetica;fontColor=#000000;" parent="3WtVO7gQT3JorMnZep3p-16" vertex="1">
          <mxGeometry x="30" y="10" width="140" height="30" as="geometry" />
        </mxCell>
        <mxCell id="3WtVO7gQT3JorMnZep3p-30" value="Backend (API)" style="html=1;shape=mxgraph.infographic.ribbonSimple;notch1=0;notch2=20;align=center;verticalAlign=middle;fontSize=14;fontStyle=0;fillColor=#f0a30a;whiteSpace=wrap;strokeColor=#BD7000;fontFamily=Helvetica;fontColor=#000000;" parent="3WtVO7gQT3JorMnZep3p-16" vertex="1">
          <mxGeometry x="30" y="50" width="140" height="30" as="geometry" />
        </mxCell>
        <mxCell id="djVDhRiAAj4sorn4fmPW-24" value="" style="shape=umlActor;verticalLabelPosition=bottom;verticalAlign=top;html=1;outlineConnect=0;" vertex="1" parent="3WtVO7gQT3JorMnZep3p-16">
          <mxGeometry x="43" y="15" width="10" height="20" as="geometry" />
        </mxCell>
        <mxCell id="3WtVO7gQT3JorMnZep3p-1" value="Archive Server" style="swimlane;whiteSpace=wrap;html=1;strokeColor=#666666;align=center;verticalAlign=top;fontFamily=Helvetica;fontSize=12;fontColor=#333333;fillColor=#f5f5f5;" parent="U-DBBzU1QM40JavWMOPu-16" vertex="1">
          <mxGeometry x="940" y="19" width="240" height="260" as="geometry" />
        </mxCell>
        <mxCell id="3WtVO7gQT3JorMnZep3p-6" value="AREMA" style="swimlane;horizontal=0;whiteSpace=wrap;html=1;strokeColor=#BD7000;align=center;verticalAlign=top;fontFamily=Helvetica;fontSize=12;fontColor=#000000;fillColor=#f0a30a;" parent="3WtVO7gQT3JorMnZep3p-1" vertex="1">
          <mxGeometry x="10" y="30" width="220" height="110" as="geometry" />
        </mxCell>
        <mxCell id="3WtVO7gQT3JorMnZep3p-2" value="Jobs" style="shape=process2;fixedSize=1;size=5;fontStyle=1;html=1;whiteSpace=wrap;strokeColor=#BD7000;align=center;verticalAlign=top;fontFamily=Helvetica;fontSize=12;fontColor=#000000;fillColor=#f0a30a;" parent="3WtVO7gQT3JorMnZep3p-6" vertex="1">
          <mxGeometry x="30" y="10" width="140" height="30" as="geometry" />
        </mxCell>
        <mxCell id="3WtVO7gQT3JorMnZep3p-8" value="Node-RED" style="swimlane;horizontal=0;whiteSpace=wrap;html=1;strokeColor=#BD7000;align=center;verticalAlign=top;fontFamily=Helvetica;fontSize=12;fontColor=#000000;fillColor=#f0a30a;" parent="3WtVO7gQT3JorMnZep3p-1" vertex="1">
          <mxGeometry x="10" y="150" width="220" height="90" as="geometry" />
        </mxCell>
        <mxCell id="3WtVO7gQT3JorMnZep3p-59" value="RabbitMQ" style="html=1;shape=mxgraph.infographic.ribbonSimple;notch1=0;notch2=20;align=center;verticalAlign=middle;fontSize=14;fontStyle=0;fillColor=#f0a30a;whiteSpace=wrap;strokeColor=#BD7000;fontFamily=Helvetica;fontColor=#000000;" parent="3WtVO7gQT3JorMnZep3p-8" vertex="1">
          <mxGeometry x="30" y="10" width="140" height="30" as="geometry" />
        </mxCell>
        <mxCell id="djVDhRiAAj4sorn4fmPW-3" value="" style="endArrow=classic;html=1;rounded=0;exitX=1;exitY=0.5;exitDx=0;exitDy=0;exitPerimeter=0;entryX=0.5;entryY=1;entryDx=0;entryDy=0;dashed=1;fillColor=#f0a30a;strokeColor=#BD7000;jumpStyle=arc;" edge="1" parent="3WtVO7gQT3JorMnZep3p-1" source="3WtVO7gQT3JorMnZep3p-59" target="3WtVO7gQT3JorMnZep3p-2">
          <mxGeometry width="50" height="50" relative="1" as="geometry">
            <mxPoint x="110" y="-79" as="sourcePoint" />
            <mxPoint x="160" y="-129" as="targetPoint" />
            <Array as="points">
              <mxPoint x="190" y="175" />
              <mxPoint x="190" y="101" />
              <mxPoint x="110" y="101" />
            </Array>
          </mxGeometry>
        </mxCell>
        <mxCell id="djVDhRiAAj4sorn4fmPW-4" value="Create" style="edgeLabel;html=1;align=center;verticalAlign=middle;resizable=0;points=[];" vertex="1" connectable="0" parent="djVDhRiAAj4sorn4fmPW-3">
          <mxGeometry x="0.159" y="-1" relative="1" as="geometry">
            <mxPoint as="offset" />
          </mxGeometry>
        </mxCell>
        <mxCell id="3WtVO7gQT3JorMnZep3p-61" value="PSI Storage Cache" style="swimlane;whiteSpace=wrap;html=1;strokeColor=#666666;align=center;verticalAlign=top;fontFamily=Helvetica;fontSize=12;fontColor=#333333;fillColor=#f5f5f5;" parent="U-DBBzU1QM40JavWMOPu-16" vertex="1">
          <mxGeometry x="660" y="320" width="260" height="70" as="geometry" />
        </mxCell>
        <mxCell id="3WtVO7gQT3JorMnZep3p-63" value="API" style="html=1;shape=mxgraph.infographic.ribbonSimple;notch1=0;notch2=20;align=center;verticalAlign=middle;fontSize=14;fontStyle=0;fillColor=#f0a30a;whiteSpace=wrap;strokeColor=#BD7000;fontFamily=Helvetica;fontColor=#000000;" parent="3WtVO7gQT3JorMnZep3p-61" vertex="1">
          <mxGeometry x="10" y="30" width="140" height="30" as="geometry" />
        </mxCell>
        <mxCell id="U-DBBzU1QM40JavWMOPu-36" value="IM-Provider" style="swimlane;whiteSpace=wrap;html=1;strokeColor=#666666;align=center;verticalAlign=top;fontFamily=Helvetica;fontSize=12;fontColor=#333333;fillColor=#f5f5f5;" parent="U-DBBzU1QM40JavWMOPu-16" vertex="1">
          <mxGeometry x="410" y="19" width="215" height="260" as="geometry" />
        </mxCell>
        <mxCell id="3WtVO7gQT3JorMnZep3p-76" value="Frontend" style="swimlane;horizontal=0;whiteSpace=wrap;html=1;strokeColor=#9673a6;align=center;verticalAlign=top;fontFamily=Helvetica;fontSize=12;fillColor=#e1d5e7;startSize=23;" parent="U-DBBzU1QM40JavWMOPu-36" vertex="1">
          <mxGeometry x="10" y="30" width="190" height="110" as="geometry" />
        </mxCell>
        <mxCell id="3WtVO7gQT3JorMnZep3p-79" value="User control" style="html=1;shape=mxgraph.infographic.ribbonSimple;notch1=0;notch2=20;align=center;verticalAlign=middle;fontSize=14;fontStyle=0;fillColor=#e1d5e7;whiteSpace=wrap;strokeColor=#9673a6;fontFamily=Helvetica;" parent="3WtVO7gQT3JorMnZep3p-76" vertex="1">
          <mxGeometry x="30" y="10" width="140" height="30" as="geometry" />
        </mxCell>
        <mxCell id="3WtVO7gQT3JorMnZep3p-78" value="Backend" style="swimlane;horizontal=0;whiteSpace=wrap;html=1;strokeColor=#9673a6;align=center;verticalAlign=top;fontFamily=Helvetica;fontSize=12;fillColor=#e1d5e7;startSize=23;" parent="U-DBBzU1QM40JavWMOPu-36" vertex="1">
          <mxGeometry x="10" y="150" width="190" height="100" as="geometry" />
        </mxCell>
        <mxCell id="3WtVO7gQT3JorMnZep3p-80" value="IM API" style="html=1;shape=mxgraph.infographic.ribbonSimple;notch1=0;notch2=20;align=center;verticalAlign=middle;fontSize=14;fontStyle=0;fillColor=#e1d5e7;whiteSpace=wrap;strokeColor=#9673a6;fontFamily=Helvetica;" parent="3WtVO7gQT3JorMnZep3p-78" vertex="1">
          <mxGeometry x="30" y="10" width="140" height="30" as="geometry" />
        </mxCell>
        <mxCell id="3WtVO7gQT3JorMnZep3p-155" value="" style="endArrow=classic;html=1;rounded=0;fontFamily=Helvetica;fontSize=12;fontColor=default;exitX=1;exitY=0.5;exitDx=0;exitDy=0;exitPerimeter=0;entryX=0;entryY=0;entryDx=0;entryDy=15;entryPerimeter=0;fillColor=#e1d5e7;strokeColor=#9673a6;dashed=1;startArrow=classic;startFill=1;jumpStyle=arc;" parent="U-DBBzU1QM40JavWMOPu-16" source="3WtVO7gQT3JorMnZep3p-80" target="3WtVO7gQT3JorMnZep3p-30" edge="1">
          <mxGeometry width="50" height="50" relative="1" as="geometry">
            <mxPoint x="780" y="-60" as="sourcePoint" />
            <mxPoint x="830" y="-110" as="targetPoint" />
            <Array as="points">
              <mxPoint x="660" y="194" />
              <mxPoint x="660" y="234" />
            </Array>
          </mxGeometry>
        </mxCell>
        <mxCell id="djVDhRiAAj4sorn4fmPW-2" value="" style="endArrow=classic;html=1;rounded=0;exitX=1;exitY=0.5;exitDx=0;exitDy=0;exitPerimeter=0;entryX=0;entryY=0.5;entryDx=0;entryDy=0;strokeWidth=3;fillColor=#f0a30a;strokeColor=#BD7000;jumpStyle=arc;" edge="1" parent="U-DBBzU1QM40JavWMOPu-16" source="3WtVO7gQT3JorMnZep3p-63" target="3WtVO7gQT3JorMnZep3p-2">
          <mxGeometry width="50" height="50" relative="1" as="geometry">
            <mxPoint x="880" y="490" as="sourcePoint" />
            <mxPoint x="930" y="440" as="targetPoint" />
            <Array as="points">
              <mxPoint x="930" y="365" />
              <mxPoint x="930" y="74" />
            </Array>
          </mxGeometry>
        </mxCell>
        <mxCell id="djVDhRiAAj4sorn4fmPW-5" value="" style="endArrow=classic;html=1;rounded=0;exitX=1;exitY=0.5;exitDx=0;exitDy=0;exitPerimeter=0;entryX=0;entryY=0;entryDx=0;entryDy=15;entryPerimeter=0;dashed=1;fillColor=#f0a30a;strokeColor=#BD7000;jumpStyle=arc;" edge="1" parent="U-DBBzU1QM40JavWMOPu-16" source="3WtVO7gQT3JorMnZep3p-30" target="3WtVO7gQT3JorMnZep3p-59">
          <mxGeometry width="50" height="50" relative="1" as="geometry">
            <mxPoint x="1030" y="-60" as="sourcePoint" />
            <mxPoint x="1080" y="-110" as="targetPoint" />
            <Array as="points">
              <mxPoint x="890" y="234" />
              <mxPoint x="890" y="194" />
            </Array>
          </mxGeometry>
        </mxCell>
        <mxCell id="djVDhRiAAj4sorn4fmPW-6" value="Create" style="edgeLabel;html=1;align=center;verticalAlign=middle;resizable=0;points=[];" vertex="1" connectable="0" parent="djVDhRiAAj4sorn4fmPW-5">
          <mxGeometry x="-0.451" y="-1" relative="1" as="geometry">
            <mxPoint as="offset" />
          </mxGeometry>
        </mxCell>
        <mxCell id="U-DBBzU1QM40JavWMOPu-17" value="CSCS" style="swimlane;html=1;startSize=20;horizontal=0;fillColor=#f5f5f5;fontColor=#333333;strokeColor=#666666;" parent="U-DBBzU1QM40JavWMOPu-1" vertex="1">
          <mxGeometry x="20" y="1310" width="1220" height="110" as="geometry" />
        </mxCell>
        <mxCell id="U-DBBzU1QM40JavWMOPu-35" value="Petabyte Archive" style="swimlane;whiteSpace=wrap;html=1;strokeColor=#666666;align=center;verticalAlign=top;fontFamily=Helvetica;fontSize=12;fontColor=#333333;fillColor=#f5f5f5;" parent="U-DBBzU1QM40JavWMOPu-17" vertex="1">
          <mxGeometry x="1000" y="20" width="200" height="70" as="geometry" />
        </mxCell>
        <mxCell id="3WtVO7gQT3JorMnZep3p-64" value="API" style="html=1;shape=mxgraph.infographic.ribbonSimple;notch1=0;notch2=20;align=center;verticalAlign=middle;fontSize=14;fontStyle=0;fillColor=#f0a30a;whiteSpace=wrap;strokeColor=#BD7000;fontFamily=Helvetica;fontColor=#000000;" parent="U-DBBzU1QM40JavWMOPu-35" vertex="1">
          <mxGeometry x="10" y="29" width="140" height="30" as="geometry" />
        </mxCell>
        <mxCell id="djVDhRiAAj4sorn4fmPW-25" value="Object storage" style="swimlane;whiteSpace=wrap;html=1;strokeColor=#666666;align=center;verticalAlign=top;fontFamily=Helvetica;fontSize=12;fontColor=#333333;fillColor=#f5f5f5;" vertex="1" parent="U-DBBzU1QM40JavWMOPu-17">
          <mxGeometry x="750" y="20" width="200" height="70" as="geometry" />
        </mxCell>
        <mxCell id="djVDhRiAAj4sorn4fmPW-26" value="API" style="html=1;shape=mxgraph.infographic.ribbonSimple;notch1=0;notch2=20;align=center;verticalAlign=middle;fontSize=14;fontStyle=0;fillColor=#f0a30a;whiteSpace=wrap;strokeColor=#BD7000;fontFamily=Helvetica;fontColor=#000000;" vertex="1" parent="djVDhRiAAj4sorn4fmPW-25">
          <mxGeometry x="10" y="29" width="140" height="30" as="geometry" />
        </mxCell>
        <mxCell id="djVDhRiAAj4sorn4fmPW-27" value="" style="shape=umlActor;verticalLabelPosition=bottom;verticalAlign=top;html=1;outlineConnect=0;" vertex="1" parent="djVDhRiAAj4sorn4fmPW-25">
          <mxGeometry x="20" y="34" width="10" height="20" as="geometry" />
        </mxCell>
        <mxCell id="djVDhRiAAj4sorn4fmPW-29" value="" style="endArrow=classic;html=1;rounded=0;exitX=1;exitY=0.5;exitDx=0;exitDy=0;exitPerimeter=0;entryX=0;entryY=0;entryDx=0;entryDy=15;entryPerimeter=0;strokeWidth=3;fillColor=#f0a30a;strokeColor=#BD7000;" edge="1" parent="U-DBBzU1QM40JavWMOPu-17" source="3WtVO7gQT3JorMnZep3p-64" target="djVDhRiAAj4sorn4fmPW-26">
          <mxGeometry width="50" height="50" relative="1" as="geometry">
            <mxPoint x="920" y="220" as="sourcePoint" />
            <mxPoint x="700" y="100" as="targetPoint" />
            <Array as="points">
              <mxPoint x="1170" y="64" />
              <mxPoint x="1170" y="100" />
              <mxPoint x="730" y="100" />
              <mxPoint x="730" y="64" />
            </Array>
          </mxGeometry>
        </mxCell>
        <mxCell id="3WtVO7gQT3JorMnZep3p-149" value="" style="endArrow=classic;html=1;rounded=0;fontFamily=Helvetica;fontSize=12;fontColor=default;exitX=1;exitY=0.5;exitDx=0;exitDy=0;entryX=0;entryY=0;entryDx=0;entryDy=15;entryPerimeter=0;strokeWidth=3;fillColor=#f0a30a;strokeColor=#BD7000;jumpStyle=arc;" parent="U-DBBzU1QM40JavWMOPu-1" source="3WtVO7gQT3JorMnZep3p-2" target="3WtVO7gQT3JorMnZep3p-64" edge="1">
          <mxGeometry width="50" height="50" relative="1" as="geometry">
            <mxPoint x="1180" y="1180" as="sourcePoint" />
            <mxPoint x="1230" y="1130" as="targetPoint" />
            <Array as="points">
              <mxPoint x="1220" y="974" />
              <mxPoint x="1220" y="1220" />
              <mxPoint x="1000" y="1220" />
              <mxPoint x="1000" y="1374" />
            </Array>
          </mxGeometry>
        </mxCell>
        <mxCell id="3WtVO7gQT3JorMnZep3p-150" value="" style="endArrow=classic;html=1;rounded=0;fontFamily=Helvetica;fontSize=12;fontColor=default;exitX=1;exitY=0.5;exitDx=0;exitDy=0;entryX=0;entryY=0;entryDx=0;entryDy=15;entryPerimeter=0;exitPerimeter=0;startArrow=classic;startFill=1;dashed=1;fillColor=#e1d5e7;strokeColor=#9673a6;jumpStyle=arc;" parent="U-DBBzU1QM40JavWMOPu-1" source="3WtVO7gQT3JorMnZep3p-151" target="3WtVO7gQT3JorMnZep3p-80" edge="1">
          <mxGeometry width="50" height="50" relative="1" as="geometry">
            <mxPoint x="650" y="480" as="sourcePoint" />
            <mxPoint x="700" y="430" as="targetPoint" />
            <Array as="points">
              <mxPoint x="570" y="275" />
              <mxPoint x="570" y="840" />
              <mxPoint x="410" y="840" />
              <mxPoint x="410" y="1094" />
            </Array>
          </mxGeometry>
        </mxCell>
        <mxCell id="3WtVO7gQT3JorMnZep3p-153" value="" style="endArrow=classic;html=1;rounded=0;fontFamily=Helvetica;fontSize=12;fontColor=default;exitX=1;exitY=0.5;exitDx=0;exitDy=0;exitPerimeter=0;entryX=0;entryY=0;entryDx=0;entryDy=15;entryPerimeter=0;startArrow=classic;startFill=1;dashed=1;fillColor=#e1d5e7;strokeColor=#9673a6;jumpStyle=arc;" parent="U-DBBzU1QM40JavWMOPu-1" source="3WtVO7gQT3JorMnZep3p-152" target="3WtVO7gQT3JorMnZep3p-80" edge="1">
          <mxGeometry width="50" height="50" relative="1" as="geometry">
            <mxPoint x="690" y="780" as="sourcePoint" />
            <mxPoint x="740" y="730" as="targetPoint" />
            <Array as="points">
              <mxPoint x="570" y="775" />
              <mxPoint x="570" y="840" />
              <mxPoint x="410" y="840" />
              <mxPoint x="410" y="1094" />
            </Array>
          </mxGeometry>
        </mxCell>
        <mxCell id="3WtVO7gQT3JorMnZep3p-154" value="" style="endArrow=classic;html=1;rounded=0;fontFamily=Helvetica;fontSize=12;fontColor=default;exitX=1;exitY=0.5;exitDx=0;exitDy=0;exitPerimeter=0;entryX=0;entryY=0;entryDx=0;entryDy=15;fillColor=#f8cecc;strokeColor=#b85450;dashed=1;entryPerimeter=0;jumpStyle=arc;" parent="U-DBBzU1QM40JavWMOPu-1" source="3WtVO7gQT3JorMnZep3p-58" target="3WtVO7gQT3JorMnZep3p-79" edge="1">
          <mxGeometry width="50" height="50" relative="1" as="geometry">
            <mxPoint x="250" y="415" as="sourcePoint" />
            <mxPoint x="300" y="455" as="targetPoint" />
            <Array as="points">
              <mxPoint x="270" y="475" />
              <mxPoint x="270" y="974" />
            </Array>
          </mxGeometry>
        </mxCell>
        <mxCell id="djVDhRiAAj4sorn4fmPW-1" value="" style="endArrow=classic;html=1;rounded=0;exitX=1;exitY=0.5;exitDx=0;exitDy=0;exitPerimeter=0;entryX=0;entryY=0;entryDx=0;entryDy=15;entryPerimeter=0;strokeWidth=3;fillColor=#fff2cc;strokeColor=#d6b656;jumpStyle=arc;" edge="1" parent="U-DBBzU1QM40JavWMOPu-1" source="U-DBBzU1QM40JavWMOPu-43" target="3WtVO7gQT3JorMnZep3p-63">
          <mxGeometry width="50" height="50" relative="1" as="geometry">
            <mxPoint x="760" y="740" as="sourcePoint" />
            <mxPoint x="810" y="690" as="targetPoint" />
            <Array as="points">
              <mxPoint x="660" y="695" />
              <mxPoint x="660" y="1265" />
            </Array>
          </mxGeometry>
        </mxCell>
        <mxCell id="djVDhRiAAj4sorn4fmPW-16" value="" style="endArrow=classic;html=1;rounded=0;exitX=0.5;exitY=1;exitDx=0;exitDy=0;entryX=0;entryY=0;entryDx=0;entryDy=15;entryPerimeter=0;dashed=1;fillColor=#dae8fc;strokeColor=#6c8ebf;jumpStyle=arc;flowAnimation=0;" edge="1" parent="U-DBBzU1QM40JavWMOPu-1" source="3WtVO7gQT3JorMnZep3p-86" target="3WtVO7gQT3JorMnZep3p-30">
          <mxGeometry width="50" height="50" relative="1" as="geometry">
            <mxPoint x="1100" y="330" as="sourcePoint" />
            <mxPoint x="810" y="520" as="targetPoint" />
            <Array as="points">
              <mxPoint x="870" y="360" />
              <mxPoint x="690" y="360" />
              <mxPoint x="690" y="1134" />
            </Array>
          </mxGeometry>
        </mxCell>
        <mxCell id="djVDhRiAAj4sorn4fmPW-17" value="Status Updates" style="edgeLabel;html=1;align=center;verticalAlign=middle;resizable=0;points=[];" vertex="1" connectable="0" parent="djVDhRiAAj4sorn4fmPW-16">
          <mxGeometry x="-0.9424" relative="1" as="geometry">
            <mxPoint as="offset" />
          </mxGeometry>
        </mxCell>
        <mxCell id="djVDhRiAAj4sorn4fmPW-18" value="" style="endArrow=classic;html=1;rounded=0;exitX=1;exitY=0.5;exitDx=0;exitDy=0;exitPerimeter=0;entryX=0;entryY=0;entryDx=0;entryDy=15;entryPerimeter=0;fillColor=#dae8fc;strokeColor=#6c8ebf;dashed=1;jumpStyle=arc;flowAnimation=0;" edge="1" parent="U-DBBzU1QM40JavWMOPu-1" source="3WtVO7gQT3JorMnZep3p-30" target="3WtVO7gQT3JorMnZep3p-93">
          <mxGeometry width="50" height="50" relative="1" as="geometry">
            <mxPoint x="1020" y="790" as="sourcePoint" />
            <mxPoint x="1070" y="740" as="targetPoint" />
            <Array as="points">
              <mxPoint x="910" y="1134" />
              <mxPoint x="910" y="810" />
              <mxPoint x="730" y="810" />
              <mxPoint x="730" y="145" />
            </Array>
          </mxGeometry>
        </mxCell>
        <mxCell id="djVDhRiAAj4sorn4fmPW-20" value="" style="endArrow=classic;html=1;rounded=0;exitX=1;exitY=0.5;exitDx=0;exitDy=0;exitPerimeter=0;entryX=0;entryY=0;entryDx=0;entryDy=15;entryPerimeter=0;fillColor=#fff2cc;strokeColor=#d6b656;dashed=1;jumpStyle=arc;" edge="1" parent="U-DBBzU1QM40JavWMOPu-1" source="3WtVO7gQT3JorMnZep3p-123" target="3WtVO7gQT3JorMnZep3p-30">
          <mxGeometry width="50" height="50" relative="1" as="geometry">
            <mxPoint x="650" y="330" as="sourcePoint" />
            <mxPoint x="700" y="280" as="targetPoint" />
            <Array as="points">
              <mxPoint x="680" y="235" />
              <mxPoint x="680" y="1120" />
              <mxPoint x="710" y="1120" />
              <mxPoint x="710" y="1134" />
            </Array>
          </mxGeometry>
        </mxCell>
        <mxCell id="djVDhRiAAj4sorn4fmPW-21" value="" style="endArrow=classic;html=1;rounded=0;exitX=1;exitY=0.5;exitDx=0;exitDy=0;exitPerimeter=0;entryX=0;entryY=0;entryDx=0;entryDy=15;entryPerimeter=0;fillColor=#fff2cc;strokeColor=#d6b656;dashed=1;jumpStyle=arc;" edge="1" parent="U-DBBzU1QM40JavWMOPu-1" source="U-DBBzU1QM40JavWMOPu-42" target="3WtVO7gQT3JorMnZep3p-30">
          <mxGeometry width="50" height="50" relative="1" as="geometry">
            <mxPoint x="840" y="680" as="sourcePoint" />
            <mxPoint x="890" y="630" as="targetPoint" />
            <Array as="points">
              <mxPoint x="680" y="655" />
              <mxPoint x="680" y="1120" />
              <mxPoint x="710" y="1120" />
              <mxPoint x="710" y="1134" />
            </Array>
          </mxGeometry>
        </mxCell>
        <mxCell id="djVDhRiAAj4sorn4fmPW-31" value="Key" style="swimlane;horizontal=0;whiteSpace=wrap;html=1;rounded=0;shadow=0;glass=0;" vertex="1" parent="1">
          <mxGeometry x="120" y="1520" width="980" height="130" as="geometry" />
        </mxCell>
        <mxCell id="djVDhRiAAj4sorn4fmPW-38" value="" style="group" vertex="1" connectable="0" parent="djVDhRiAAj4sorn4fmPW-31">
          <mxGeometry x="450" y="10" width="520" height="120" as="geometry" />
        </mxCell>
        <mxCell id="djVDhRiAAj4sorn4fmPW-36" value="" style="rounded=0;whiteSpace=wrap;html=1;dashed=1;" vertex="1" parent="djVDhRiAAj4sorn4fmPW-38">
          <mxGeometry width="520" height="110" as="geometry" />
        </mxCell>
        <mxCell id="djVDhRiAAj4sorn4fmPW-37" value="Objects" style="text;html=1;align=center;verticalAlign=middle;whiteSpace=wrap;rounded=0;" vertex="1" parent="djVDhRiAAj4sorn4fmPW-38">
          <mxGeometry x="10.75" width="64.5" height="18.333333333333336" as="geometry" />
        </mxCell>
        <mxCell id="djVDhRiAAj4sorn4fmPW-40" value="" style="group" vertex="1" connectable="0" parent="djVDhRiAAj4sorn4fmPW-38">
          <mxGeometry x="10.75" y="18.330000000000013" width="107.5" height="30" as="geometry" />
        </mxCell>
        <mxCell id="3WtVO7gQT3JorMnZep3p-139" value="" style="endArrow=classic;html=1;rounded=0;fontFamily=Helvetica;fontSize=12;fontColor=default;strokeWidth=3;" parent="djVDhRiAAj4sorn4fmPW-40" edge="1">
          <mxGeometry width="50" height="50" relative="1" as="geometry">
            <mxPoint y="15" as="sourcePoint" />
            <mxPoint x="53.75" y="15" as="targetPoint" />
          </mxGeometry>
        </mxCell>
        <mxCell id="3WtVO7gQT3JorMnZep3p-141" value="Data" style="text;html=1;align=center;verticalAlign=middle;whiteSpace=wrap;rounded=0;fontFamily=Helvetica;fontSize=12;fontColor=default;" parent="djVDhRiAAj4sorn4fmPW-40" vertex="1">
          <mxGeometry x="43" width="64.5" height="30" as="geometry" />
        </mxCell>
        <mxCell id="djVDhRiAAj4sorn4fmPW-41" value="" style="group" vertex="1" connectable="0" parent="djVDhRiAAj4sorn4fmPW-38">
          <mxGeometry x="10.75" y="48.33000000000001" width="129" height="61.67" as="geometry" />
        </mxCell>
        <mxCell id="3WtVO7gQT3JorMnZep3p-140" value="" style="endArrow=classic;html=1;rounded=0;fontFamily=Helvetica;fontSize=12;fontColor=default;dashed=1;" parent="djVDhRiAAj4sorn4fmPW-41" edge="1">
          <mxGeometry width="50" height="50" relative="1" as="geometry">
            <mxPoint y="13.71" as="sourcePoint" />
            <mxPoint x="53.75" y="13.71" as="targetPoint" />
          </mxGeometry>
        </mxCell>
        <mxCell id="3WtVO7gQT3JorMnZep3p-142" value="Information" style="text;html=1;align=center;verticalAlign=middle;whiteSpace=wrap;rounded=0;fontFamily=Helvetica;fontSize=12;fontColor=default;" parent="djVDhRiAAj4sorn4fmPW-41" vertex="1">
          <mxGeometry x="58.05" width="64.5" height="30" as="geometry" />
        </mxCell>
        <mxCell id="djVDhRiAAj4sorn4fmPW-44" value="" style="group" vertex="1" connectable="0" parent="djVDhRiAAj4sorn4fmPW-41">
          <mxGeometry y="27.5" width="114.4875" height="30" as="geometry" />
        </mxCell>
        <mxCell id="djVDhRiAAj4sorn4fmPW-22" value="" style="shape=umlActor;verticalLabelPosition=bottom;verticalAlign=top;html=1;outlineConnect=0;" vertex="1" parent="djVDhRiAAj4sorn4fmPW-44">
          <mxGeometry y="2.5" width="10.75" height="25" as="geometry" />
        </mxCell>
        <mxCell id="djVDhRiAAj4sorn4fmPW-43" value="Interface public" style="text;html=1;align=center;verticalAlign=middle;whiteSpace=wrap;rounded=0;" vertex="1" parent="djVDhRiAAj4sorn4fmPW-44">
          <mxGeometry x="14.5125" width="99.975" height="30" as="geometry" />
        </mxCell>
        <mxCell id="djVDhRiAAj4sorn4fmPW-54" value="" style="group" vertex="1" connectable="0" parent="djVDhRiAAj4sorn4fmPW-38">
          <mxGeometry x="360" y="10" width="156" height="40" as="geometry" />
        </mxCell>
        <mxCell id="djVDhRiAAj4sorn4fmPW-47" value="..." style="swimlane;whiteSpace=wrap;html=1;" vertex="1" parent="djVDhRiAAj4sorn4fmPW-54">
          <mxGeometry width="64.5" height="40" as="geometry" />
        </mxCell>
        <mxCell id="djVDhRiAAj4sorn4fmPW-52" value="Infrastructure-unit" style="text;html=1;align=center;verticalAlign=middle;whiteSpace=wrap;rounded=0;" vertex="1" parent="djVDhRiAAj4sorn4fmPW-54">
          <mxGeometry x="70" y="5" width="86" height="30" as="geometry" />
        </mxCell>
        <mxCell id="djVDhRiAAj4sorn4fmPW-55" value="" style="group" vertex="1" connectable="0" parent="djVDhRiAAj4sorn4fmPW-38">
          <mxGeometry x="172" y="7.5" width="182.75" height="30" as="geometry" />
        </mxCell>
        <mxCell id="djVDhRiAAj4sorn4fmPW-45" value="" style="shape=process;whiteSpace=wrap;html=1;backgroundOutline=1;" vertex="1" parent="djVDhRiAAj4sorn4fmPW-55">
          <mxGeometry y="2.4999999999999982" width="96.75" height="25" as="geometry" />
        </mxCell>
        <mxCell id="djVDhRiAAj4sorn4fmPW-49" value="Job Queue" style="text;html=1;align=center;verticalAlign=middle;whiteSpace=wrap;rounded=0;" vertex="1" parent="djVDhRiAAj4sorn4fmPW-55">
          <mxGeometry x="96.75" width="86" height="30" as="geometry" />
        </mxCell>
        <mxCell id="djVDhRiAAj4sorn4fmPW-56" value="" style="group" vertex="1" connectable="0" parent="djVDhRiAAj4sorn4fmPW-38">
          <mxGeometry x="172" y="40" width="182.75" height="30" as="geometry" />
        </mxCell>
        <mxCell id="djVDhRiAAj4sorn4fmPW-46" value="" style="html=1;shape=mxgraph.infographic.ribbonSimple;notch1=0;notch2=20;align=center;verticalAlign=middle;fontSize=14;fontStyle=0;whiteSpace=wrap;fontFamily=Helvetica;" vertex="1" parent="djVDhRiAAj4sorn4fmPW-56">
          <mxGeometry width="96.75" height="30" as="geometry" />
        </mxCell>
        <mxCell id="djVDhRiAAj4sorn4fmPW-50" value="Function" style="text;html=1;align=center;verticalAlign=middle;whiteSpace=wrap;rounded=0;" vertex="1" parent="djVDhRiAAj4sorn4fmPW-56">
          <mxGeometry x="96.75" width="86" height="30" as="geometry" />
        </mxCell>
        <mxCell id="djVDhRiAAj4sorn4fmPW-57" value="" style="group" vertex="1" connectable="0" parent="djVDhRiAAj4sorn4fmPW-38">
          <mxGeometry x="172" y="75" width="182.75" height="30" as="geometry" />
        </mxCell>
        <mxCell id="djVDhRiAAj4sorn4fmPW-48" value="..." style="swimlane;horizontal=0;whiteSpace=wrap;html=1;" vertex="1" parent="djVDhRiAAj4sorn4fmPW-57">
          <mxGeometry y="5" width="86" height="20" as="geometry" />
        </mxCell>
        <mxCell id="djVDhRiAAj4sorn4fmPW-51" value="Organization" style="text;html=1;align=center;verticalAlign=middle;whiteSpace=wrap;rounded=0;" vertex="1" parent="djVDhRiAAj4sorn4fmPW-57">
          <mxGeometry x="96.75" width="86" height="30" as="geometry" />
        </mxCell>
        <mxCell id="djVDhRiAAj4sorn4fmPW-39" value="" style="group" vertex="1" connectable="0" parent="djVDhRiAAj4sorn4fmPW-31">
          <mxGeometry x="30" y="10" width="410" height="180" as="geometry" />
        </mxCell>
        <mxCell id="djVDhRiAAj4sorn4fmPW-35" value="" style="rounded=0;whiteSpace=wrap;html=1;dashed=1;" vertex="1" parent="djVDhRiAAj4sorn4fmPW-39">
          <mxGeometry width="410" height="110" as="geometry" />
        </mxCell>
        <mxCell id="djVDhRiAAj4sorn4fmPW-33" value="Responsibilities" style="text;html=1;align=center;verticalAlign=middle;whiteSpace=wrap;rounded=0;" vertex="1" parent="djVDhRiAAj4sorn4fmPW-39">
          <mxGeometry x="10" width="110" height="30" as="geometry" />
        </mxCell>
        <mxCell id="3WtVO7gQT3JorMnZep3p-81" value="Data transfer &amp;amp; Ingestion" style="text;html=1;align=center;verticalAlign=middle;whiteSpace=wrap;rounded=0;fontFamily=Helvetica;fontSize=12;fillColor=#fff2cc;strokeColor=#d6b656;" parent="djVDhRiAAj4sorn4fmPW-39" vertex="1">
          <mxGeometry x="10" y="30" width="90" height="30" as="geometry" />
        </mxCell>
        <mxCell id="3WtVO7gQT3JorMnZep3p-83" value="EM Standards" style="text;html=1;align=center;verticalAlign=middle;whiteSpace=wrap;rounded=0;fontFamily=Helvetica;fontSize=12;fillColor=#d5e8d4;strokeColor=#82b366;" parent="djVDhRiAAj4sorn4fmPW-39" vertex="1">
          <mxGeometry x="110" y="30" width="90" height="30" as="geometry" />
        </mxCell>
        <mxCell id="3WtVO7gQT3JorMnZep3p-84" value="SciCat Authentication &amp;amp; Access" style="text;html=1;align=center;verticalAlign=middle;whiteSpace=wrap;rounded=0;fontFamily=Helvetica;fontSize=12;fillColor=#e1d5e7;strokeColor=#9673a6;" parent="djVDhRiAAj4sorn4fmPW-39" vertex="1">
          <mxGeometry x="210" y="30" width="130" height="30" as="geometry" />
        </mxCell>
        <mxCell id="3WtVO7gQT3JorMnZep3p-125" value="Education" style="text;html=1;align=center;verticalAlign=middle;whiteSpace=wrap;rounded=0;fontFamily=Helvetica;fontSize=12;fillColor=#ffe6cc;strokeColor=#d79b00;" parent="djVDhRiAAj4sorn4fmPW-39" vertex="1">
          <mxGeometry x="10" y="70" width="90" height="30" as="geometry" />
        </mxCell>
        <mxCell id="3WtVO7gQT3JorMnZep3p-85" value="ETH specific" style="text;html=1;align=center;verticalAlign=middle;whiteSpace=wrap;rounded=0;fontFamily=Helvetica;fontSize=12;fillColor=#dae8fc;strokeColor=#6c8ebf;" parent="djVDhRiAAj4sorn4fmPW-39" vertex="1">
          <mxGeometry x="110" y="70" width="90" height="30" as="geometry" />
        </mxCell>
        <mxCell id="3WtVO7gQT3JorMnZep3p-109" value="Facility specific" style="text;html=1;align=center;verticalAlign=middle;whiteSpace=wrap;rounded=0;fontFamily=Helvetica;fontSize=12;fillColor=#f8cecc;strokeColor=#b85450;" parent="djVDhRiAAj4sorn4fmPW-39" vertex="1">
          <mxGeometry x="210" y="70" width="90" height="30" as="geometry" />
        </mxCell>
        <mxCell id="3WtVO7gQT3JorMnZep3p-116" value="PSI specific" style="text;html=1;align=center;verticalAlign=middle;whiteSpace=wrap;rounded=0;fontFamily=Helvetica;fontSize=12;fillColor=#f0a30a;strokeColor=#BD7000;fontColor=#000000;" parent="djVDhRiAAj4sorn4fmPW-39" vertex="1">
          <mxGeometry x="310" y="70" width="90" height="30" as="geometry" />
        </mxCell>
      </root>
    </mxGraphModel>
  </diagram>
  <diagram id="prtHgNgQTEPvFCAcTncT" name="Prozessskizze">
    <mxGraphModel dx="1418" dy="820" grid="1" gridSize="10" guides="1" tooltips="1" connect="1" arrows="1" fold="1" page="1" pageScale="1" pageWidth="827" pageHeight="1169" math="0" shadow="0">
      <root>
        <mxCell id="0" />
        <mxCell id="1" parent="0" />
        <mxCell id="dNxyNK7c78bLwvsdeMH5-19" value="OpenEM" style="swimlane;html=1;childLayout=stackLayout;resizeParent=1;resizeParentMax=0;horizontal=0;startSize=20;horizontalStack=0;" parent="1" vertex="1">
          <mxGeometry x="20" y="20" width="860" height="950" as="geometry" />
        </mxCell>
        <mxCell id="dNxyNK7c78bLwvsdeMH5-20" value="Facilities" style="swimlane;html=1;startSize=20;horizontal=0;" parent="dNxyNK7c78bLwvsdeMH5-19" vertex="1">
          <mxGeometry x="20" width="840" height="320" as="geometry" />
        </mxCell>
        <mxCell id="y0gWv5ze9NuPYU_P7Slt-2" value="User" style="shape=umlActor;verticalLabelPosition=bottom;verticalAlign=top;html=1;outlineConnect=0;" parent="dNxyNK7c78bLwvsdeMH5-20" vertex="1">
          <mxGeometry x="50" y="30" width="30" height="60" as="geometry" />
        </mxCell>
        <mxCell id="y0gWv5ze9NuPYU_P7Slt-11" style="edgeStyle=orthogonalEdgeStyle;rounded=0;orthogonalLoop=1;jettySize=auto;html=1;entryX=0.5;entryY=0;entryDx=0;entryDy=0;fontFamily=Helvetica;fontSize=12;fontColor=default;dashed=1;endArrow=none;endFill=0;" parent="dNxyNK7c78bLwvsdeMH5-20" source="y0gWv5ze9NuPYU_P7Slt-6" target="y0gWv5ze9NuPYU_P7Slt-9" edge="1">
          <mxGeometry relative="1" as="geometry" />
        </mxCell>
        <mxCell id="y0gWv5ze9NuPYU_P7Slt-13" value="" style="edgeStyle=orthogonalEdgeStyle;rounded=0;orthogonalLoop=1;jettySize=auto;html=1;fontFamily=Helvetica;fontSize=12;fontColor=default;" parent="dNxyNK7c78bLwvsdeMH5-20" source="y0gWv5ze9NuPYU_P7Slt-6" target="y0gWv5ze9NuPYU_P7Slt-12" edge="1">
          <mxGeometry relative="1" as="geometry" />
        </mxCell>
        <mxCell id="y0gWv5ze9NuPYU_P7Slt-6" value="Aufnahme mit EM" style="points=[[0.25,0,0],[0.5,0,0],[0.75,0,0],[1,0.25,0],[1,0.5,0],[1,0.75,0],[0.75,1,0],[0.5,1,0],[0.25,1,0],[0,0.75,0],[0,0.5,0],[0,0.25,0]];shape=mxgraph.bpmn.task;whiteSpace=wrap;rectStyle=rounded;size=10;html=1;container=1;expand=0;collapsible=0;taskMarker=abstract;strokeColor=default;align=center;verticalAlign=middle;fontFamily=Helvetica;fontSize=12;fontColor=default;fillColor=default;" parent="dNxyNK7c78bLwvsdeMH5-20" vertex="1">
          <mxGeometry x="170" y="20" width="120" height="80" as="geometry" />
        </mxCell>
        <mxCell id="y0gWv5ze9NuPYU_P7Slt-7" style="edgeStyle=orthogonalEdgeStyle;rounded=0;orthogonalLoop=1;jettySize=auto;html=1;entryX=0;entryY=0.5;entryDx=0;entryDy=0;entryPerimeter=0;fontFamily=Helvetica;fontSize=12;fontColor=default;" parent="dNxyNK7c78bLwvsdeMH5-20" source="y0gWv5ze9NuPYU_P7Slt-2" target="y0gWv5ze9NuPYU_P7Slt-6" edge="1">
          <mxGeometry relative="1" as="geometry" />
        </mxCell>
        <mxCell id="y0gWv5ze9NuPYU_P7Slt-9" value="EM-Speicher" style="shape=datastore;html=1;labelPosition=center;verticalLabelPosition=bottom;align=center;verticalAlign=top;strokeColor=default;fontFamily=Helvetica;fontSize=12;fontColor=default;fillColor=default;" parent="dNxyNK7c78bLwvsdeMH5-20" vertex="1">
          <mxGeometry x="195" y="130" width="70" height="50" as="geometry" />
        </mxCell>
        <mxCell id="OaZ7enM9Vhu5JJ8ffbU0-5" value="" style="edgeStyle=orthogonalEdgeStyle;rounded=0;orthogonalLoop=1;jettySize=auto;html=1;fontFamily=Helvetica;fontSize=12;fontColor=default;" parent="dNxyNK7c78bLwvsdeMH5-20" source="y0gWv5ze9NuPYU_P7Slt-12" target="OaZ7enM9Vhu5JJ8ffbU0-4" edge="1">
          <mxGeometry relative="1" as="geometry" />
        </mxCell>
        <mxCell id="y0gWv5ze9NuPYU_P7Slt-12" value="Kopie auf OpenEM-Cache" style="points=[[0.25,0,0],[0.5,0,0],[0.75,0,0],[1,0.25,0],[1,0.5,0],[1,0.75,0],[0.75,1,0],[0.5,1,0],[0.25,1,0],[0,0.75,0],[0,0.5,0],[0,0.25,0]];shape=mxgraph.bpmn.task;whiteSpace=wrap;rectStyle=rounded;size=10;html=1;container=1;expand=0;collapsible=0;taskMarker=abstract;strokeColor=default;align=center;verticalAlign=middle;fontFamily=Helvetica;fontSize=12;fontColor=default;fillColor=default;" parent="dNxyNK7c78bLwvsdeMH5-20" vertex="1">
          <mxGeometry x="320" y="20" width="120" height="80" as="geometry" />
        </mxCell>
        <mxCell id="OaZ7enM9Vhu5JJ8ffbU0-2" value="OpenEM-Cache" style="shape=datastore;html=1;labelPosition=center;verticalLabelPosition=bottom;align=center;verticalAlign=top;strokeColor=default;fontFamily=Helvetica;fontSize=12;fontColor=default;fillColor=default;" parent="dNxyNK7c78bLwvsdeMH5-20" vertex="1">
          <mxGeometry x="345" y="130" width="70" height="50" as="geometry" />
        </mxCell>
        <mxCell id="OaZ7enM9Vhu5JJ8ffbU0-3" style="edgeStyle=orthogonalEdgeStyle;rounded=0;orthogonalLoop=1;jettySize=auto;html=1;entryX=0.5;entryY=0;entryDx=0;entryDy=0;fontFamily=Helvetica;fontSize=12;fontColor=default;dashed=1;endArrow=none;endFill=0;exitX=0.5;exitY=1;exitDx=0;exitDy=0;exitPerimeter=0;" parent="dNxyNK7c78bLwvsdeMH5-20" source="y0gWv5ze9NuPYU_P7Slt-12" target="OaZ7enM9Vhu5JJ8ffbU0-2" edge="1">
          <mxGeometry relative="1" as="geometry">
            <mxPoint x="240" y="110" as="sourcePoint" />
            <mxPoint x="240" y="140" as="targetPoint" />
          </mxGeometry>
        </mxCell>
        <mxCell id="OaZ7enM9Vhu5JJ8ffbU0-4" value="Auswahl" style="points=[[0.25,0,0],[0.5,0,0],[0.75,0,0],[1,0.25,0],[1,0.5,0],[1,0.75,0],[0.75,1,0],[0.5,1,0],[0.25,1,0],[0,0.75,0],[0,0.5,0],[0,0.25,0]];shape=mxgraph.bpmn.task;whiteSpace=wrap;rectStyle=rounded;size=10;html=1;container=1;expand=0;collapsible=0;taskMarker=abstract;strokeColor=default;align=center;verticalAlign=middle;fontFamily=Helvetica;fontSize=12;fontColor=default;fillColor=default;" parent="dNxyNK7c78bLwvsdeMH5-20" vertex="1">
          <mxGeometry x="520" y="20" width="120" height="80" as="geometry" />
        </mxCell>
        <mxCell id="dNxyNK7c78bLwvsdeMH5-21" value="ETHZ" style="swimlane;html=1;startSize=20;horizontal=0;" parent="dNxyNK7c78bLwvsdeMH5-19" vertex="1">
          <mxGeometry x="20" y="320" width="840" height="270" as="geometry" />
        </mxCell>
        <mxCell id="y0gWv5ze9NuPYU_P7Slt-4" value="User" style="shape=umlActor;verticalLabelPosition=bottom;verticalAlign=top;html=1;outlineConnect=0;" parent="dNxyNK7c78bLwvsdeMH5-21" vertex="1">
          <mxGeometry x="50" y="30" width="30" height="60" as="geometry" />
        </mxCell>
        <mxCell id="dNxyNK7c78bLwvsdeMH5-22" value="PSI" style="swimlane;html=1;startSize=20;horizontal=0;" parent="dNxyNK7c78bLwvsdeMH5-19" vertex="1">
          <mxGeometry x="20" y="590" width="840" height="180" as="geometry" />
        </mxCell>
        <mxCell id="y0gWv5ze9NuPYU_P7Slt-1" value="CSCS" style="swimlane;html=1;startSize=20;horizontal=0;" parent="dNxyNK7c78bLwvsdeMH5-19" vertex="1">
          <mxGeometry x="20" y="770" width="840" height="180" as="geometry" />
        </mxCell>
      </root>
    </mxGraphModel>
  </diagram>
</mxfile>
